<?xml version="1.0" encoding="UTF-8"?>
<svg width="14px" height="13px" viewBox="0 0 14 13" version="1.1" xmlns="http://www.w3.org/2000/svg" xmlns:xlink="http://www.w3.org/1999/xlink">
    <!-- Generator: Sketch 53 (72520) - https://sketchapp.com -->
    <title>icon/image/car/24</title>
    <desc>Created with Sketch.</desc>
    <defs>
        <path d="M14.46,3.5 C14.4024064,3.49984664 14.3451111,3.50827241 14.29,3.525 L10,4.805 L10,4 C10.0004483,3.86016124 9.9423153,3.72652496 9.83970658,3.63151689 C9.73709787,3.53650882 9.59939122,3.48881212 9.46,3.5 C9.40240639,3.49984664 9.34511112,3.50827241 9.29,3.525 L5,4.805 L5,1.5 C5.00044826,1.36016124 4.9423153,1.22652496 4.83970658,1.13151689 C4.73709787,1.03650882 4.59939122,0.988812123 4.46,1 L1.54,1 C1.40060878,0.988812123 1.26290213,1.03650882 1.16029342,1.13151689 C1.0576847,1.22652496 0.999551738,1.36016124 1,1.5 L0.999997427,14 L15.0000026,14 L15,4 C15.0004483,3.86016124 14.9423153,3.72652496 14.8397066,3.63151689 C14.7370979,3.53650882 14.5993912,3.48881212 14.46,3.5 Z M11,13 L9,13 L9,9 L11,9 L11,13 Z M14,13 L12,13 L12,8.5 C12,8.22385763 11.7761424,8 11.5,8 L8.5,8 C8.22385763,8 8,8.22385763 8,8.5 L8,13 L2,13 L2,2 L4,2 L4,6.15 L5.285,5.765 L9,4.655 L9,6.155 L10.285,5.77 L14,4.655 L14,13 Z" id="path-1"></path>
    </defs>
    <g id="页面-1" stroke="none" stroke-width="1" fill="none" fill-rule="evenodd">
        <g id="Sale" transform="translate(-15.000000, -181.000000)">
            <g id="icon/image/industry/16" transform="translate(14.000000, 180.000000)">
                <mask id="mask-2" fill="white">
                    <use xlink:href="#path-1"></use>
                </mask>
                <use id="icon-color" fill="#FFFFFF" fill-rule="evenodd" xlink:href="#path-1"></use>
            </g>
        </g>
    </g>
</svg>