<?xml version="1.0" encoding="UTF-8"?>
<svg width="14px" height="10px" viewBox="0 0 14 10" version="1.1" xmlns="http://www.w3.org/2000/svg" xmlns:xlink="http://www.w3.org/1999/xlink">
    <!-- Generator: Sketch 53 (72520) - https://sketchapp.com -->
    <title>icon/image/car/24</title>
    <desc>Created with Sketch.</desc>
    <defs>
        <path d="M14.65,8 L10.8,6.6 L9.2,4.55 C8.95,4.2 8.5,4 8.05,4 L4.05,4 C3.55,4 3.1,4.2 2.8,4.6 L1.45,6.6 C1.15,7 1,7.5 1,8.05 L1,12 C1,12.3 1.2,12.5 1.5,12.5 L2.55,12.5 C2.75,13.35 3.55,14 4.5,14 C5.45,14 6.2,13.35 6.45,12.5 L9.1,12.5 C9.3,13.35 10.1,14 11.05,14 C12,14 12.75,13.35 13,12.5 L14.5,12.5 C14.8,12.5 15,12.3 15,12 L15,8.45 C15,8.25 14.85,8.05 14.65,8 Z M4.5,13 C3.95,13 3.5,12.55 3.5,12 C3.5,11.45 3.95,11 4.5,11 C5.05,11 5.5,11.45 5.5,12 C5.5,12.55 5.05,13 4.5,13 Z M11,13 C10.45,13 10,12.55 10,12 C10,11.45 10.45,11 11,11 C11.55,11 12,11.45 12,12 C12,12.55 11.55,13 11,13 Z M14,11.5 L12.95,11.5 C12.75,10.65 11.95,10 11,10 C10.05,10 9.3,10.65 9.05,11.5 L6.4,11.5 C6.2,10.65 5.4,10 4.45,10 C3.5,10 2.75,10.65 2.5,11.5 L2,11.5 L2,8.05 C2,7.7 2.1,7.45 2.25,7.2 L3.6,5.25 C3.7,5.05 3.85,5 4.05,5 L8.05,5 C8.2,5 8.35,5.1 8.4,5.15 L10.1,7.3 C10.15,7.35 10.25,7.45 10.3,7.45 L13.95,8.8 L13.95,11.5 L14,11.5 Z" id="path-1"></path>
    </defs>
    <g id="页面-1" stroke="none" stroke-width="1" fill="none" fill-rule="evenodd">
        <g id="Sale" transform="translate(-14.000000, -144.000000)">
            <g id="icon/image/car/16" transform="translate(13.000000, 140.000000)">
                <mask id="mask-2" fill="white">
                    <use xlink:href="#path-1"></use>
                </mask>
                <use id="icon-color" fill="#FFFFFF" fill-rule="evenodd" xlink:href="#path-1"></use>
            </g>
        </g>
    </g>
</svg>