<?xml version="1.0" encoding="UTF-8"?>
<svg width="14px" height="15px" viewBox="0 0 14 15" version="1.1" xmlns="http://www.w3.org/2000/svg" xmlns:xlink="http://www.w3.org/1999/xlink">
    <!-- Generator: Sketch 53 (72520) - https://sketchapp.com -->
    <title>icon/image/car/24</title>
    <desc>Created with Sketch.</desc>
    <defs>
        <path d="M4,4.5 C2.8954305,4.5 2,3.6045695 2,2.5 C2,1.3954305 2.8954305,0.5 4,0.5 C5.1045695,0.5 6,1.3954305 6,2.5 C6,3.03043298 5.78928632,3.53914081 5.41421356,3.91421356 C5.03914081,4.28928632 4.53043298,4.5 4,4.5 Z M4,1.5 C3.44771525,1.5 3,1.94771525 3,2.5 C3,3.05228475 3.44771525,3.5 4,3.5 C4.55228475,3.5 5,3.05228475 5,2.5 C5,2.23478351 4.89464316,1.9804296 4.70710678,1.79289322 C4.5195704,1.60535684 4.26521649,1.5 4,1.5 Z M12,4.5 C10.8954305,4.5 10,3.6045695 10,2.5 C10,1.3954305 10.8954305,0.5 12,0.5 C13.1045695,0.5 14,1.3954305 14,2.5 C14,3.03043298 13.7892863,3.53914081 13.4142136,3.91421356 C13.0391408,4.28928632 12.530433,4.5 12,4.5 Z M12,1.5 C11.4477153,1.5 11,1.94771525 11,2.5 C11,3.05228475 11.4477153,3.5 12,3.5 C12.5522847,3.5 13,3.05228475 13,2.5 C13,2.23478351 12.8946432,1.9804296 12.7071068,1.79289322 C12.5195704,1.60535684 12.2652165,1.5 12,1.5 Z M13,15 L11,15 C10.4477153,15 10,14.5522847 10,14 L10,10.5 L11,10.5 L11,14 L13,14 L13,9.5 L14,9.5 L14,6.5 C14,6.22385763 13.7761424,6 13.5,6 L10.29,6 L8,10 L5.71,6 L2.5,6 C2.22385763,6 2,6.22385763 2,6.5 L2,9.5 L3,9.5 L3,14 L5,14 L5,10.5 L6,10.5 L6,14 C6,14.5522847 5.55228475,15 5,15 L3,15 C2.44771525,15 2,14.5522847 2,14 L2,10.5 C1.44771525,10.5 1,10.0522847 1,9.5 L1,6.5 C1,5.67157288 1.67157288,5 2.5,5 L6.29,5 L8,8 L9.71,5 L13.5,5 C14.3284271,5 15,5.67157288 15,6.5 L15,9.5 C15,10.0522847 14.5522847,10.5 14,10.5 L14,14 C14,14.5522847 13.5522847,15 13,15 Z" id="path-1"></path>
    </defs>
    <g id="页面-1" stroke="none" stroke-width="1" fill="none" fill-rule="evenodd">
        <g id="Sale" transform="translate(-14.000000, -100.000000)">
            <g id="icon/user/partnership/16" transform="translate(13.000000, 100.000000)">
                <mask id="mask-2" fill="white">
                    <use xlink:href="#path-1"></use>
                </mask>
                <use id="icon-color" fill="#FFFFFF" fill-rule="evenodd" xlink:href="#path-1"></use>
            </g>
        </g>
    </g>
</svg>