<?xml version="1.0" encoding="UTF-8"?>
<svg width="18px" height="18px" viewBox="0 0 18 18" version="1.1" xmlns="http://www.w3.org/2000/svg" xmlns:xlink="http://www.w3.org/1999/xlink">
    <!-- Generator: Sketch 53 (72520) - https://sketchapp.com -->
    <title>icon/toggle/notification/24</title>
    <desc>Created with Sketch.</desc>
    <defs>
        <path d="M10,1.25 C5.1875,1.25 1.25,5.1875 1.25,10 C1.25,14.8125 5.1875,18.75 10,18.75 C14.8125,18.75 18.75,14.8125 18.75,10 C18.75,5.1875 14.8125,1.25 10,1.25 Z M10,17.5 C5.875,17.5 2.5,14.125 2.5,10 C2.5,5.875 5.875,2.5 10,2.5 C14.125,2.5 17.5,5.875 17.5,10 C17.5,14.125 14.125,17.5 10,17.5 Z M10,15 C10.517767,15 10.9375,14.580267 10.9375,14.0625 C10.9375,13.544733 10.517767,13.125 10,13.125 C9.48223305,13.125 9.0625,13.544733 9.0625,14.0625 C9.0625,14.580267 9.48223305,15 10,15 Z M10.625,5 L9.6875,5 C8.125,5 6.875,6.25 6.875,7.8125 L6.875,8.125 L8.125,8.125 L8.125,7.8125 C8.125,6.9375 8.8125,6.25 9.6875,6.25 L10.625,6.25 C11.5,6.25 12.1875,6.9375 12.1875,7.8125 C12.1875,8.6875 11.5,9.375 10.625,9.375 L9.375,9.375 L9.375,11.875 L10.625,11.875 L10.625,10.625 C12.1875,10.625 13.4375,9.375 13.4375,7.8125 C13.4375,6.25 12.1875,5 10.625,5 Z" id="path-1"></path>
    </defs>
    <g id="页面-1" stroke="none" stroke-width="1" fill="none" fill-rule="evenodd">
        <g id="Sale" transform="translate(-1349.000000, -16.000000)">
            <g id="icon/status/help/20" transform="translate(1348.000000, 15.000000)">
                <mask id="mask-2" fill="white">
                    <use xlink:href="#path-1"></use>
                </mask>
                <use id="icon-color" fill="#FFFFFF" fill-rule="evenodd" xlink:href="#path-1"></use>
            </g>
        </g>
    </g>
</svg>