<?xml version="1.0" encoding="UTF-8"?>
<svg width="18px" height="19px" viewBox="0 0 18 19" version="1.1" xmlns="http://www.w3.org/2000/svg" xmlns:xlink="http://www.w3.org/1999/xlink">
    <!-- Generator: Sketch 53 (72520) - https://sketchapp.com -->
    <title>icon/toggle/notification/24</title>
    <desc>Created with Sketch.</desc>
    <defs>
        <path d="M17.94375,12.68125 L16.25,10.99375 L16.25,8.125 C16.2500403,4.91521671 13.8186941,2.22722833 10.625,1.90625 L10.625,0.625 L9.375,0.625 L9.375,1.90625 C6.18130595,2.22722833 3.74995968,4.91521671 3.75,8.125 L3.75,10.99375 L2.05625,12.68125 C1.93925843,12.7991993 1.87403953,12.9588731 1.875,13.125 L1.875,15 C1.875,15.345178 2.15482203,15.625 2.5,15.625 L6.875,15.625 C6.875,17.3508898 8.27411016,18.75 10,18.75 C11.7258898,18.75 13.125,17.3508898 13.125,15.625 L17.5,15.625 C17.845178,15.625 18.125,15.345178 18.125,15 L18.125,13.125 C18.1259605,12.9588731 18.0607416,12.7991993 17.94375,12.68125 Z M10,17.5 C8.96446609,17.5 8.125,16.6605339 8.125,15.625 L11.875,15.625 C11.875,16.6605339 11.0355339,17.5 10,17.5 L10,17.5 Z M16.875,14.375 L3.125,14.375 L3.125,13.38125 L4.81875,11.6875 C4.9342151,11.5710871 4.99930961,11.4139624 5,11.25 L5,8.125 C5,5.36357625 7.23857625,3.125 10,3.125 C12.7614237,3.125 15,5.36357625 15,8.125 L15,11.25 C14.9990395,11.4161269 15.0642584,11.5758007 15.18125,11.69375 L16.875,13.38125 L16.875,14.375 Z" id="path-1"></path>
    </defs>
    <g id="页面-1" stroke="none" stroke-width="1" fill="none" fill-rule="evenodd">
        <g id="Sale" transform="translate(-1305.000000, -15.000000)">
            <g id="icon/toggle/notification/20" transform="translate(1304.000000, 15.000000)">
                <mask id="mask-2" fill="white">
                    <use xlink:href="#path-1"></use>
                </mask>
                <use id="icon-color" fill="#FFFFFF" fill-rule="evenodd" xlink:href="#path-1"></use>
            </g>
        </g>
    </g>
</svg>