<?xml version="1.0" encoding="UTF-8"?>
<svg width="68px" height="60px" viewBox="0 0 68 60" version="1.1" xmlns="http://www.w3.org/2000/svg" xmlns:xlink="http://www.w3.org/1999/xlink">
    <!-- Generator: Sketch 56.2 (81672) - https://sketch.com -->
    <title>maintenance-1</title>
    <desc>Created with Sketch.</desc>
    <g id="页面-1" stroke="none" stroke-width="1" fill="none" fill-rule="evenodd">
        <g id="After-sale-派工" transform="translate(-247.000000, -468.000000)">
            <g id="编组-3" transform="translate(95.000000, 168.000000)">
                <g id="编组-6" transform="translate(0.000000, 280.000000)">
                    <g id="maintenance-1">
                        <g transform="translate(152.000000, 20.000000)">
                            <path d="M11.481451,22.000178 C9.54897029,22.0113563 7.99031237,23.8112159 8.00004534,26.020277 C8.00986983,28.2293381 9.5843822,30.0110741 11.5168629,29.9999482 L11.5431915,29.9999482 C13.4743915,29.9999482 15,28.1790421 15,25.9723479 C14.9971665,24.9111802 14.6241497,23.895142 13.9636453,23.1494836 C13.3031408,22.4038251 12.4097206,21.9901537 11.481451,22.000178 Z M11.5297639,27.9084723 C10.935541,27.920449 10.3814739,27.5666892 10.0787664,26.982042 C9.77605897,26.3973949 9.77135623,25.6719502 10.0664508,25.0822391 C10.3615454,24.492528 10.9109654,24.1294207 11.5052784,24.1313293 L11.5176528,24.1313293 C12.1126269,24.1206199 12.6666802,24.4764551 12.9681591,25.0629028 C13.2696381,25.6493505 13.2719674,26.3758107 12.9742573,26.9647689 C12.6765472,27.5537272 12.1247908,27.9141957 11.5297639,27.9084723 L11.5297639,27.9084723 Z" id="形状" fill="#FFFFFF" fill-rule="nonzero" opacity="0.8"></path>
                            <path d="M24.9910899,22 L24.9833077,22 C24.7200724,22.0021024 24.4684231,22.1198478 24.283936,22.3272326 C24.099449,22.5346174 23.9973021,22.8145798 24.0000542,23.1052908 L24.0188731,25.9217271 C24.0236984,26.5211177 24.466604,27.0032786 25.0093429,27 L25.0168421,27 C25.2790354,27.0006232 25.5305494,26.8853183 25.715256,26.6798001 C25.8999626,26.4742819 26.0024886,26.1956557 25.9999541,25.9061002 L25.9811352,23.0835694 C25.9764734,22.4834343 25.5345095,21.9997206 24.9910899,22 L24.9910899,22 Z" id="路径" fill="#FFFFFF" fill-rule="nonzero" opacity="0.8"></path>
                            <path d="M19.9906968,22 L19.9831976,22 C19.431499,22.0136623 18.9928081,22.5156066 19.0000893,23.1248592 L19.0189082,25.9310704 C19.0214807,26.2179651 19.1273795,26.4919285 19.3132184,26.6924598 C19.4990572,26.8929912 19.7495482,27.0035938 20.0093742,26.9998429 L20.0168734,26.9998429 C20.2770847,27.00477 20.5281008,26.8936277 20.7131343,26.6915596 C20.8981677,26.4894916 21.001582,26.2135738 21,25.9262273 L20.9810214,23.0936131 C20.9772437,22.4914243 20.536088,22.0042571 19.9906968,22 L19.9906968,22 Z" id="路径" fill="#FFFFFF" fill-rule="nonzero" opacity="0.8"></path>
                            <path d="M67.1294826,34.4198609 L63.3865611,34.0541435 C62.9757994,32.4595256 62.3418984,30.9327435 61.5041569,29.5202793 L63.885553,26.6062603 C64.2012109,26.2199083 64.1768156,25.6539868 63.8291153,25.2970169 L61.8766458,23.2924777 L62.1731503,20.8830121 C62.1783314,20.8405214 62.1807685,20.797733 62.1804459,20.7549202 C62.1795127,19.1948475 61.6210591,17.6879361 60.6084491,16.5130998 C60.3564838,16.224026 60.076618,15.9612313 59.7730334,15.7286421 L63.055781,15.702968 C63.319333,15.7009005 63.5705465,15.5894929 63.7509141,15.3946921 C63.9312816,15.1998913 64.0250586,14.9387018 64.0104043,14.6719544 C63.9470522,13.8647236 63.7852231,13.0685669 63.5286189,12.3016978 C62.9612135,10.6175276 61.2051747,9.5440959 59.0526955,9.55539812 C57.7686687,9.56502593 55.4438479,9.57395608 54.372495,9.57772349 L52.2408013,5.69296948 C50.7485056,3.02787838 48.5800586,0 45.0153977,0 L44.9685957,0 L19.04469,0.167440279 C16.1173623,0.189347049 13.5351305,2.24788574 11.7709703,5.98878064 L9.60568928,9.93939449 C8.53681409,9.94511537 6.1848757,9.95488272 4.88419293,9.96465007 C2.73267724,9.98069643 0.991505019,11.0831511 0.448464112,12.7758328 C0.202821099,13.5461383 0.0524557213,14.3443731 0.000816703037,15.152229 C-0.0100319678,15.4220439 0.0875744696,15.684776 0.271304759,15.8803151 C0.452003117,16.0725763 0.701612988,16.18276 0.963561469,16.1858936 L0.971958299,16.1858936 L4.19303744,16.1483591 C2.79393281,17.2676974 1.9035935,19.0997731 1.91887298,21.2097997 C1.91924029,21.2500335 1.92209069,21.2902046 1.92740746,21.3300776 L3.53794703,33.5029859 C3.58424865,35.2322029 4.83056087,36.6867907 6.513178,36.9754182 L6.5415345,40.8618466 C6.54684012,41.4652083 6.78845173,42.0417057 7.21318848,42.4644467 C7.63792523,42.8871877 8.21097374,43.1215225 8.80620092,43.1158718 L8.82354519,43.1158718 L12.7774887,43.0989883 C13.3775887,43.0972617 13.9522684,42.8531887 14.3743514,42.4207826 C14.7964343,41.9883766 15.0311164,41.4032928 15.0264626,40.79501 L14.9766323,36.9624416 L25.3281345,36.8838842 L25.3281345,41.447748 C25.3380197,41.9549296 25.7223345,42.3735741 26.2206762,42.4200179 L29.9743347,42.7857354 C30.3871021,44.3804913 31.0227981,45.9071955 31.8621073,47.31946 L29.4841525,50.2336186 C29.1673995,50.6221286 29.1942924,51.1911506 29.546234,51.5471875 L33.7611674,55.8190077 C34.1127889,56.1756323 34.6744162,56.2023532 35.0574453,55.8806815 L37.9385217,53.4622857 C39.3319912,54.3082193 40.8355029,54.9520985 42.4052224,55.3751514 L42.7660108,59.1425577 C42.8158428,59.6382999 43.2337307,60.0116222 43.7251766,59.9997234 L49.6993148,59.9997234 C50.1904971,60.0115855 50.6082508,59.6386869 50.6584806,59.1432553 L51.019269,55.3627329 C52.5920427,54.9486003 54.0982043,54.3082929 55.4918888,53.461309 L58.3667708,55.8778908 C58.7493147,56.1997532 59.3106312,56.1737639 59.6626357,55.8178914 L63.8768809,51.5469085 C64.2282037,51.190594 64.254554,50.621882 63.9377235,50.2337581 L61.5519225,47.3135996 C62.3865594,45.9009311 63.0218089,44.3766857 63.4391445,42.7853168 L67.1300332,42.420297 C67.623552,42.3714693 68,41.9509447 68,41.4483062 L68,35.3925494 C68,34.8894497 67.6234819,34.4684459 67.1294826,34.4198609 Z M59.0654972,11.5095657 C60.3507628,11.4956124 61.413306,12.0723046 61.7037537,12.9339243 C61.7942847,13.2044118 61.8698362,13.4798151 61.9300552,13.7588468 L56.6706111,13.8007069 L55.433111,11.5285423 C56.5947643,11.5233795 58.1144529,11.5166819 59.0654972,11.5095657 Z M13.4704336,6.89616742 C13.480207,6.87844666 13.4892921,6.86044683 13.4979642,6.84216793 C14.3260844,5.07804506 16.1497108,2.1421193 19.0591436,2.12035207 L44.9829116,1.95346992 L45.0155354,1.95346992 C47.0482566,1.95346992 48.7098654,3.34406144 50.5592328,6.64751861 L54.9352203,14.6690242 L50.3292147,14.696931 C49.9128154,11.4697781 47.1889916,9.06319305 43.978295,9.08569116 C40.7675984,9.10818927 38.0768573,11.5527155 37.7045116,14.7853952 L9.03732023,14.9988816 L13.4704336,6.89616742 Z M48.3814254,14.7046053 L39.6524386,14.7627908 C40.0126962,12.6153148 41.8407204,11.0391368 43.9896079,11.0231517 L44.0231952,11.0231517 C46.1600503,11.0289184 47.9904822,12.5751079 48.3814254,14.7046053 L48.3814254,14.7046053 Z M2.06726286,14.204517 C2.12337878,13.9252201 2.19479355,13.6493073 2.28117555,13.3780597 C2.55895922,12.5122539 3.61062779,11.9239804 4.89837118,11.9144921 C5.85175555,11.9073759 7.37020529,11.8984458 8.53351041,11.8918877 L7.29311964,14.1584709 L2.06726286,14.204517 Z M13.0017253,41.0562169 C12.9388254,41.1211631 12.852957,41.1579787 12.7631728,41.158495 L8.80977989,41.187797 C8.72027407,41.1870199 8.63442536,41.1516923 8.56971314,41.0890072 C8.50564228,41.025248 8.46932286,40.9382065 8.46881353,40.8471956 L8.44128293,37.0153248 L13.0722036,36.9794647 L13.0997413,40.8125913 C13.100317,40.9036962 13.0650434,40.9912773 13.0017253,41.0559378 L13.0017253,41.0562169 Z M25.4868483,34.9059959 L7.11664855,35.0230326 L7.10439744,35.0230326 C6.67407589,35.0279114 6.25943928,34.8593421 5.95177283,34.5543289 C5.64410638,34.2493157 5.46863399,33.832865 5.46398717,33.3966613 C5.46362422,33.3597169 5.46077276,33.3228408 5.45545269,33.2862903 L3.84573904,21.1253819 C3.85372291,18.6086149 5.53887038,17.0920246 7.23860907,16.9760722 C7.28981597,16.9845838 7.34143583,17.0229555 7.39415691,17.0229555 L7.40145251,17.0229555 L56.5297921,16.6296104 C56.537363,16.6296104 56.5446586,16.6043535 56.5522295,16.6043535 L56.5595251,16.6043535 C57.5597779,16.6034863 58.5107988,17.0442816 59.1644696,17.8117387 C59.8501972,18.6190036 60.2350025,19.6444237 60.251928,20.7095718 L60.1518543,21.522913 L59.6675912,21.0253363 C59.3166384,20.6650227 58.7522363,20.636311 58.367459,20.9591974 L55.4865203,23.3774536 C54.0930864,22.5315467 52.5896239,21.8876687 51.0199573,21.464588 L50.6591689,17.6484845 C50.6132735,17.1433625 50.2001937,16.7539 49.6998654,16.7440279 L43.7257272,16.7440279 C43.2254067,16.7539216 42.8123958,17.143491 42.7666991,17.648624 L42.4059107,21.4534253 C40.8325779,21.8717504 39.3263937,22.5161356 37.9331532,23.3669886 L35.0584089,20.9564067 C34.6751124,20.6352407 34.1136628,20.6625029 33.7624063,21.0193363 L30.7461548,24.0774935 L30.7413369,23.4198718 C30.7388701,23.1635892 30.6358718,22.9188413 30.4550834,22.739667 C30.274295,22.5604927 30.0305861,22.4616289 29.7777662,22.4649041 L29.7704706,22.4649041 C29.5162263,22.4631044 29.2718841,22.5647061 29.0921277,22.7469708 C28.9123713,22.9292355 28.8122093,23.1769451 28.8140579,23.4346624 L28.8323657,25.9487782 C28.8366457,26.4599475 29.2304849,26.8805638 29.7338549,26.9115598 L31.8729819,29.5282327 C31.0385418,30.94044 30.4033435,32.464157 29.9858975,34.0549807 L26.2427007,34.4202795 C25.9258056,34.4418021 25.6412141,34.6245111 25.486573,34.9057168 L25.4868483,34.9059959 Z M66.0734091,40.5624076 L62.5690402,40.909009 C62.1522003,40.9502363 61.809368,41.2596846 61.7208227,41.6746296 C61.3153359,43.5234263 60.5831562,45.2825883 59.5596713,46.8670922 C59.3318071,47.2250991 59.3591588,47.691517 59.6272589,48.0196395 L61.8950913,50.7953807 L58.9217875,53.8093057 L56.1834573,51.5106297 C55.8556575,51.2353751 55.3885213,51.2107576 55.0343304,51.4500722 C53.4793376,52.4930399 51.746344,53.2333727 49.9239644,53.6332143 C49.5177438,53.7110672 49.2103922,54.0504349 49.168525,54.467346 L48.8246679,58.0459634 L44.6003741,58.0459634 L44.2576182,54.4676251 C44.216504,54.0476639 43.9100772,53.7039465 43.5020411,53.6200982 C41.6784627,53.2113085 39.9429747,52.4711906 38.3795617,51.4355607 C38.0256756,51.2056321 37.5655869,51.2347699 37.242686,51.50756 L34.5042181,53.8079104 L31.5309143,50.7939854 L33.7986091,48.0186627 C34.0700435,47.6863797 34.0942719,47.2129449 33.8582128,46.8539761 C32.8293603,45.2777581 32.0990097,43.5211454 31.7044946,41.673932 C31.6062006,41.2558404 31.2559036,40.9477952 30.8337021,40.9081717 L27.2552758,40.5611518 L27.2552758,36.2787271 L30.8334268,35.9312885 C31.2532003,35.8910491 31.6000508,35.5821706 31.6934824,35.1653888 C32.1010906,33.3163271 32.8352641,31.5572399 33.8605529,29.9730657 C34.0891537,29.6156258 34.062862,29.1492351 33.7955807,28.8205185 L31.5292624,26.0446377 L34.5035298,23.0307127 L37.2428236,25.3293887 C37.5706809,25.6046684 38.0378968,25.6292304 38.3920882,25.3898067 C39.9471744,24.3469211 41.6801973,23.6065957 43.5025918,23.2066645 C43.9151192,23.1072372 44.2190904,22.7521198 44.2580312,22.3241147 L44.6003741,18.6974978 L48.8246679,18.6974978 L49.1675615,22.3242543 C49.2071162,22.7497769 49.5118211,23.1014179 49.9230009,23.19606 C51.747178,23.6091839 53.4826028,24.3533403 55.0454803,25.3925974 C55.3981027,25.6243213 55.8582074,25.5976704 56.1824937,25.3267375 L58.916419,23.0330848 L61.8447103,26.0400331 L59.5734366,28.8205185 C59.301867,29.1528549 59.277636,29.6264539 59.5138328,29.9854842 C60.5426882,31.5618021 61.2730377,33.3185066 61.667551,35.1658074 C61.7561708,35.5811689 62.0995682,35.8907818 62.5168697,35.9315676 L66.0734091,36.2787271 L66.0734091,40.5624076 Z" id="形状" fill="#FFFFFF" fill-rule="nonzero" opacity="0.8"></path>
                            <path d="M47.5003193,25 C42.4445281,25 37.8865474,28.0454811 35.9518182,32.716439 C34.0170889,37.3873969 35.0866368,42.7638779 38.6617187,46.3387645 C42.2368006,49.913651 47.61334,50.9829051 52.2841921,49.0479206 C56.9550442,47.1129361 60.0003315,42.5547889 60,37.4989977 C59.9917947,30.5991269 54.4001906,25.0078283 47.5003193,25 Z M47.5003193,48.0870831 C43.2181024,48.0870831 39.3575094,45.5076356 37.7187376,41.5513989 C36.0799658,37.5951621 36.9857453,33.0413092 40.0137104,30.013305 C43.0416755,26.9853008 47.5955167,26.0794626 51.5517746,27.7181833 C55.5080325,29.356904 58.0875851,33.2174638 58.0875851,37.4996808 C58.0809606,43.3441422 53.3447806,48.0803833 47.5003193,48.0870831 L47.5003193,48.0870831 Z" id="形状" fill="#FFFFFF" fill-rule="nonzero" opacity="0.8"></path>
                            <path d="M42.3332734,37.5 L52.9965209,37.5" id="直线" stroke="#FFEBEC" stroke-width="2" stroke-linecap="round"></path>
                            <path d="M42,37.5 L53,37.5" id="直线" stroke="#FFEBEC" stroke-width="2" stroke-linecap="round" transform="translate(47.500000, 37.500000) rotate(90.000000) translate(-47.500000, -37.500000) "></path>
                        </g>
                    </g>
                </g>
            </g>
        </g>
    </g>
</svg>