<?xml version="1.0" encoding="UTF-8"?>
<svg width="32px" height="33px" viewBox="0 0 32 33" version="1.1" xmlns="http://www.w3.org/2000/svg" xmlns:xlink="http://www.w3.org/1999/xlink">
    <!-- Generator: Sketch 56.2 (81672) - https://sketch.com -->
    <title>车库</title>
    <desc>Created with Sketch.</desc>
    <g id="页面-1" stroke="none" stroke-width="1" fill="none" fill-rule="evenodd">
        <g id="After-sale-派工" transform="translate(-1150.000000, -182.000000)" fill="#82C600" fill-rule="nonzero">
            <g id="编组-4" transform="translate(1123.000000, 166.000000)">
                <g id="车库" transform="translate(27.000000, 16.000000)">
                    <polygon id="路径" points="16 0 0 9.625 0 33 2.22222222 33 2.22222222 11.5041667 16 3.20833333 29.7777778 11.5041667 29.7777778 33 32 33 32 9.625"></polygon>
                    <g id="car-front" transform="translate(7.200000, 14.025000)">
                        <path d="M16.2533333,1.0828125 C16.0488488,0.433125 15.4355556,0 14.8222222,0 L3.57777778,0 C2.86222222,0 2.35111111,0.433125 2.14666667,1.0828125 L0,7.5796875 L0,16.2421875 C0,16.891875 0.408888889,17.325 1.02222222,17.325 L2.04444444,17.325 C2.65777778,17.325 3.06666667,16.891875 3.06666667,16.2421875 L3.06666667,15.159375 L15.3333333,15.159375 L15.3333333,16.2421875 C15.3333333,16.891875 15.7422222,17.325 16.3555556,17.325 L17.3777778,17.325 C17.9911111,17.325 18.4,16.891875 18.4,16.2421875 L18.4,7.5796875 L16.2533333,1.0828125 Z M3.57777778,11.9109375 C2.76,11.9109375 2.04444444,11.1529687 2.04444444,10.2867187 C2.04444444,9.42046875 2.76,8.6625 3.57777778,8.6625 C4.39555556,8.6625 5.11111111,9.42046875 5.11111111,10.2867187 C5.11111111,11.1529687 4.39555556,11.9109375 3.57777778,11.9109375 Z M14.8222222,11.9109375 C14.0044444,11.9109375 13.2888889,11.1529687 13.2888889,10.2867187 C13.2888889,9.42046875 14.0044444,8.6625 14.8222222,8.6625 C15.64,8.6625 16.3555556,9.42046875 16.3555556,10.2867187 C16.3555556,11.1529687 15.64,11.9109375 14.8222222,11.9109375 Z M2.04444444,6.496875 L3.57777778,1.62421875 L14.8222222,1.62421875 L16.3555556,6.496875 L2.04444444,6.496875 Z" id="形状"></path>
                    </g>
                </g>
            </g>
        </g>
    </g>
</svg>