<?xml version="1.0" encoding="UTF-8"?>
<svg width="64px" height="60px" viewBox="0 0 64 60" version="1.1" xmlns="http://www.w3.org/2000/svg" xmlns:xlink="http://www.w3.org/1999/xlink">
    <!-- Generator: Sketch 56.2 (81672) - https://sketch.com -->
    <title>repair</title>
    <desc>Created with Sketch.</desc>
    <g id="页面-1" stroke="none" stroke-width="1" fill="none" fill-rule="evenodd" opacity="0.8">
        <g id="After-sale-派工" transform="translate(-251.000000, -328.000000)" fill="#FFFFFF" fill-rule="nonzero">
            <g id="编组-3" transform="translate(95.000000, 168.000000)">
                <g id="编组-5" transform="translate(0.000000, 140.000000)">
                    <g id="repair">
                        <g transform="translate(156.000000, 20.000000)">
                            <path d="M58.0513631,6.02556287 L58.0552641,6.02556287 C58.3789496,6.0368086 58.6843598,5.87544411 58.8578868,5.60149458 C59.0314137,5.32754504 59.0470865,4.98201108 58.8990751,4.69342614 C57.4687506,1.79905848 54.5144032,-0.0232774591 51.2905176,0.0002246299 C47.9857774,0.0232994672 44.9889839,1.94849828 43.589414,4.9475643 L21.4055114,4.9475643 C20.0055819,1.95015143 17.0091616,0.0269012052 13.7057529,0.00547987292 C10.4836349,-0.0101779447 7.5337084,1.81314368 6.10244153,4.70501463 C5.95673988,4.9897361 5.97255719,5.33047937 6.14400659,5.60042719 C6.31818625,5.87291024 6.62202583,6.03419495 6.94490737,6.02556287 L10.7710448,6.02556287 L12.3642374,8.43758467 L10.6424487,10.8958256 L6.94356223,10.8765564 L6.94033387,10.8765564 C6.61269052,10.884505 6.31154028,11.058722 6.140908,11.3390284 C5.97027572,11.6193347 5.95355549,11.9672998 6.09652288,12.2627278 C7.54498122,15.1930653 10.5414397,17.0328405 13.8054269,16.9958655 C17.0694142,16.9588904 20.0235744,15.0517056 21.4055114,12.0893048 L43.589414,12.0893048 C44.9690389,15.0496387 47.9184873,16.9576082 51.1795698,16.999303 C54.4406523,17.0409978 57.4377509,15.2090582 58.8923493,12.2849616 C59.0380886,11.984948 59.0224998,11.6314567 58.8509188,11.3454858 C58.6816345,11.0621944 58.3794954,10.8852913 58.050018,10.8765564 L54.2238806,10.8765564 L52.630688,8.50024333 L54.3524767,6.02408062 L58.0513631,6.02556287 Z M53.8631121,4.13906538 C53.5537286,4.14453559 53.2661637,4.2998188 53.0915355,4.55571183 L50.719099,7.9597618 C50.4969087,8.27928395 50.4921089,8.70234743 50.7069926,9.02684563 L52.9359019,12.36123 C53.1126757,12.6191682 53.4074744,12.7702967 53.7197194,12.7630539 L56.3057653,12.7630539 C55.0636422,14.2486023 53.2242302,15.1009572 51.289845,15.0873536 C48.53675,15.0863135 46.0713141,13.3794657 45.0970552,10.8000185 C44.9575476,10.4349917 44.6050368,10.196343 44.2149075,10.2028073 L20.7800178,10.2028073 C20.3880386,10.2003939 20.0360321,10.4427877 19.8978701,10.8102595 C19.0795163,13.0079222 17.1598947,14.6065915 14.8535063,15.011228 C12.5471178,15.4158646 10.1993954,14.5658649 8.68418302,12.7776069 L11.1285849,12.7630539 L11.1318133,12.7630539 C11.4359471,12.7714496 11.7246396,12.629019 11.9033899,12.3823857 L14.2758264,8.99652692 C14.497995,8.68031793 14.5028077,8.25969849 14.2879327,7.93847133 L12.0590234,4.5724208 C11.8858216,4.30651935 11.5921135,4.1441346 11.275206,4.13906538 L8.68916006,4.13906538 C9.92669571,2.65681735 11.7384748,1.85087867 13.7050804,1.85087867 C16.4664783,1.8725674 18.9289101,3.59683875 19.8978701,6.18726266 C20.0318457,6.56356292 20.3814483,6.81989489 20.7800178,6.8340618 L44.2149075,6.8340618 C44.612134,6.82325248 44.9621979,6.56979067 45.0970552,6.19534765 C46.0681561,3.60942287 48.5318456,1.89231201 51.289845,1.87917613 C53.2181659,1.8648015 55.054892,2.70210396 56.3107424,4.16803659 L53.8663404,4.13906538 L53.8631121,4.13906538 Z" id="形状"></path>
                            <path d="M11,39 C8.790861,39 7,40.790861 7,43 C7,45.209139 8.790861,47 11,47 C13.209139,47 15,45.209139 15,43 C14.9976321,40.7918426 13.2081574,39.0023679 11,39 L11,39 Z M11,44.9259259 C9.93634048,44.9259259 9.07407407,44.0636595 9.07407407,43 C9.07407407,41.9363405 9.93634048,41.0740741 11,41.0740741 C12.0636595,41.0740741 12.9259259,41.9363405 12.9259259,43 C12.9246194,44.0630459 12.0630462,44.9244203 11,44.9254815 L11,44.9259259 Z" id="形状"></path>
                            <path d="M53,39 C50.790861,39 49,40.790861 49,43 C49,45.209139 50.790861,47 53,47 C55.209139,47 57,45.209139 57,43 C56.9976321,40.7918426 55.2081574,39.0023679 53,39 L53,39 Z M53,44.9259259 C51.9363405,44.9259259 51.0740741,44.0636595 51.0740741,43 C51.0740741,41.9363405 51.9363405,41.0740741 53,41.0740741 C54.0636595,41.0740741 54.9259259,41.9363405 54.9259259,43 C54.9246194,44.0630459 54.0630462,44.9244203 53,44.9254815 L53,44.9259259 Z" id="形状"></path>
                            <path d="M59.0949626,27.5516561 C57.8057897,27.5516561 55.4684549,27.5433631 54.4019304,27.5393503 L52.29386,23.6626433 C50.8166039,21.0388471 48.6618165,18 45.0771652,18 L19.1424847,18 C16.2215927,18 13.6292048,20.0304459 11.8403222,23.6683949 L9.63949288,27.5447006 C8.57553369,27.5425605 6.21092489,27.5447006 4.90514451,27.5447006 C2.76088868,27.5447006 1.01818293,28.6096815 0.465275205,30.2530318 C0.214389817,31.0034918 0.0584656054,31.78189 0.00107574959,32.5703885 C-0.011275131,32.8210625 0.0831721365,33.0653586 0.261394699,33.2437261 C0.441730034,33.4242197 0.689417288,33.522746 0.945677084,33.5159236 L0.946892266,33.5159236 L4.22410261,33.5307707 C2.79585891,34.6077898 1.87623632,36.4168662 1.87623632,38.4949299 C1.87620832,38.535793 1.87868827,38.5766199 1.88366243,38.6171847 L3.40074942,50.5350191 C3.44401394,52.2180538 4.67415856,53.6397407 6.34648517,53.9394268 L6.34648517,57.7552739 C6.35155606,58.9901019 7.35864511,59.9909968 8.60510311,60 L12.561195,60 C13.8140317,59.9933353 14.8319269,58.9962447 14.8527579,57.7552739 L14.8527579,53.9808917 L49.1478892,53.9808917 L49.1478892,57.7552739 C49.1686527,58.9964301 50.186833,59.9936237 51.4398572,60 L55.3959491,60 C56.6422182,59.9907059 57.6490204,58.9899167 57.654162,57.7552739 L57.654162,53.9273885 C59.3008685,53.613196 60.5010231,52.2003073 60.5321176,50.5392994 L62.11874,38.626949 C62.1238034,38.5862624 62.1261039,38.5452849 62.125626,38.504293 C62.125626,36.4509745 61.1602316,34.6360127 59.6935071,33.5552484 L63.0555101,33.5540446 C63.3139836,33.5538677 63.5611067,33.4488316 63.7393433,33.263391 C63.9175799,33.0779505 64.0113769,32.8282872 63.9988963,32.5725287 C63.941433,31.7846076 63.7855089,31.0067936 63.5346968,30.2569108 C62.9819241,28.6134268 61.2392184,27.5516561 59.0949626,27.5516561 Z M13.5009356,24.5600255 C13.5105221,24.5430382 13.5197034,24.5141465 13.5279397,24.496758 C14.3714109,22.7740892 16.2221328,19.8726115 19.1424847,19.8726115 L45.0771652,19.8726115 C47.1335228,19.8726115 48.7980519,21.267172 50.6377022,24.5346115 L54.9718506,32.4458599 L50.3151389,32.4458599 C49.9282367,29.2911048 47.2250644,26.9188616 44.0171216,26.9188616 C40.8091787,26.9188616 38.1060064,29.2911048 37.7191042,32.4458599 L8.99139591,32.4458599 L13.5009356,24.5600255 Z M48.4052781,32.4458599 L39.628965,32.4458599 C39.9935195,30.4394904 41.8218281,28.7911911 44.0171216,28.7911911 C46.212415,28.7911911 48.0407236,30.4394904 48.4052781,32.4458599 Z M2.03366987,31.6796943 C2.09282298,31.3987483 2.16810653,31.1213741 2.25915361,30.8489236 C2.5458015,29.9967516 3.60935563,29.4242675 4.90554957,29.4242675 C5.86797357,29.4242675 7.40652878,29.4266752 8.5743185,29.4288153 L7.29594723,31.6731401 L2.03366987,31.6796943 Z M12.9624751,57.7552739 C12.9429795,57.9622696 12.7703092,58.1221212 12.5605199,58.1273885 L8.60510311,58.1273885 C8.40219146,58.1196277 8.2406237,57.9564021 8.236768,57.7552739 L8.236768,53.9808917 L12.9624751,53.9808917 L12.9624751,57.7552739 Z M55.7638791,57.7552739 C55.7598858,57.956396 55.5983148,58.1195652 55.395409,58.1273885 L51.4393171,58.1273885 C51.2297909,58.1218406 51.0575123,57.9620296 51.0381721,57.7552739 L51.0381721,53.9808917 L55.7638791,53.9808917 L55.7638791,57.7552739 Z M60.2330478,38.4301911 L58.6445352,50.3505669 C58.6390246,50.3896542 58.6362725,50.4290747 58.6362989,50.4685414 C58.6348831,51.3752344 57.8920154,52.1092414 56.9767656,52.1082819 L6.95596636,52.1082819 C6.04050577,52.109537 5.29730876,51.3754436 5.29589298,50.4685414 C5.29587558,50.4300317 5.29334995,50.3915633 5.28833184,50.3533758 L3.76678919,38.4469108 C3.79082278,36.4821401 5.0708143,34.4417962 7.20980434,34.3327834 C7.26438995,34.3325106 7.31885727,34.3277233 7.37263871,34.3184713 L56.5253931,34.3184713 C56.5341694,34.3184713 56.5426757,34.3504395 56.551452,34.3504395 C58.5644682,34.3504395 60.2052337,36.1837261 60.2330478,38.4301911 Z M56.6713499,31.6834395 L55.4291641,29.415707 C56.5950635,29.4197197 58.1345639,29.4242675 59.0946925,29.4242675 C60.3908865,29.4242675 61.4545756,29.9967516 61.7410885,30.8489236 C61.832371,31.1219602 61.9077464,31.3999659 61.9668423,31.6815669 L56.6713499,31.6834395 Z" id="形状"></path>
                            <path d="M18.9486605,45 L44.0520001,45 C44.3603669,44.9913625 44.6465045,44.8354285 44.8235164,44.5795533 C45.0005283,44.3236781 45.0475279,43.9980539 44.950242,43.7015686 L44.084661,41.1414902 C43.4897181,39.370902 41.5774983,38 39.729516,38 L23.2029769,38 C21.3507935,38 19.4490089,39.3747451 18.8745298,41.1579608 L18.0468951,43.7143333 C17.952569,44.0112722 18.0022035,44.3358842 18.1807911,44.5900196 C18.3577521,44.8426417 18.6428722,44.9948729 18.9486605,45 Z M20.6781962,41.7732745 C20.9973513,40.7851765 22.1763954,39.9215686 23.2029769,39.9215686 L39.729516,39.9215686 C40.7605698,39.9215686 41.9562831,40.7862745 42.2883128,41.7745098 L42.7274051,43.0784314 L20.2563153,43.0784314 L20.6781962,41.7732745 Z" id="形状"></path>
                            <path d="M47.076121,47 L16.923879,47 C16.4136347,47 16,47.4477153 16,48 C16,48.5522847 16.4136347,49 16.923879,49 L47.076121,49 C47.5863653,49 48,48.5522847 48,48 C48,47.4477153 47.5863653,47 47.076121,47 L47.076121,47 Z" id="路径"></path>
                        </g>
                    </g>
                </g>
            </g>
        </g>
    </g>
</svg>