<?xml version="1.0" encoding="UTF-8"?>
<svg width="61px" height="61px" viewBox="0 0 61 61" version="1.1" xmlns="http://www.w3.org/2000/svg" xmlns:xlink="http://www.w3.org/1999/xlink">
    <!-- Generator: Sketch 56.2 (81672) - https://sketch.com -->
    <title>repair-1</title>
    <desc>Created with Sketch.</desc>
    <g id="页面-1" stroke="none" stroke-width="1" fill="none" fill-rule="evenodd" opacity="0.8">
        <g id="After-sale-派工" transform="translate(-254.000000, -606.000000)" fill="#FFFFFF" fill-rule="nonzero">
            <g id="编组-3" transform="translate(95.000000, 168.000000)">
                <g id="编组-4" transform="translate(0.000000, 420.000000)">
                    <g id="repair-1" transform="translate(159.000000, 18.000000)">
                        <path d="M42.021511,47.5668796 L51.4268763,47.5668796 L51.4567266,59.9569398 C51.4581255,60.5329376 51.9254704,60.9991351 52.5014852,60.9991334 L59.9313611,60.9991334 C60.2060352,61.0104186 60.4737649,60.9110984 60.6746196,60.7234052 C60.8754743,60.535712 60.9926798,60.2753211 61,60.00052 L61,42.0908483 C60.9926685,41.500152 60.5220899,41.0196592 59.9316596,41 L42.021511,41 C41.4404219,41.0239376 40.9859087,41.5094607 41.0003341,42.0908483 L41.0003341,46.5682662 C40.9968169,46.8381244 41.1040289,47.0976379 41.2969861,47.2863316 C41.4899433,47.4750253 41.7517913,47.5764172 42.021511,47.5668796 L42.021511,47.5668796 Z M43.0898514,43.0894617 L58.9104827,43.0894617 L58.9104827,58.9096717 L53.5440051,58.9096717 L53.5141549,46.5196116 C53.512756,45.9436138 53.0454111,45.4774162 52.4693962,45.4774179 L43.0898514,45.4774179 L43.0898514,43.0894617 Z" id="形状"></path>
                        <path d="M11.0222929,21.0000276 L10.9922459,21.0000276 C9.92778075,21.0008668 8.90764664,21.4304333 8.15817065,22.1934515 C7.40869467,22.9564697 6.99185103,23.9898455 7.00012074,25.0643141 C7.00559331,26.1276918 7.43822302,27.1433306 8.19902951,27.8788648 C8.9549223,28.6165802 9.97090675,29.0197884 11.0221278,28.9992523 L11.052505,28.9992523 C12.4680782,28.9939236 13.7733055,28.2266806 14.4765204,26.9865362 C15.1797353,25.7463918 15.1741028,24.2217535 14.4617445,22.9869378 C13.7493863,21.7521221 12.4385265,20.9947269 11.0229533,21.0000276 L11.0222929,21.0000276 Z M11.0346749,26.6661532 L11.0222929,26.6661532 C10.5771173,26.6800746 10.144907,26.5137451 9.82189831,26.2041996 C9.49895434,25.9003274 9.31445786,25.4754636 9.31190155,25.0298176 C9.3095677,24.576238 9.48815025,24.1407865 9.80742193,23.8216085 C10.1266936,23.5024305 10.559786,23.3263865 11.0090854,23.3331546 L11.0217976,23.3331546 C11.6239072,23.3117596 12.1897964,23.6229862 12.4984484,24.1452802 C12.8071004,24.6675741 12.8095492,25.3180763 12.5048385,25.842723 C12.2001277,26.3673697 11.636598,26.6829286 11.0343447,26.6661532 L11.0346749,26.6661532 Z" id="形状"></path>
                        <path d="M50.0010101,20.0000258 L49.9701294,20.0000258 C47.7694941,20.008106 45.9920308,21.8054723 46.0000269,24.014582 C46.0080771,26.2236917 47.7985485,28.0079999 49.9991838,27.999973 L50.0297325,27.999973 C51.4532939,27.9947954 52.7659817,27.2276505 53.4733191,25.9874874 C54.1806565,24.7473242 54.175182,23.222553 53.4589579,21.9875404 C52.7427338,20.7525277 51.4245716,19.9949014 50.0010101,20.0000258 L50.0010101,20.0000258 Z M51.2254453,25.2269826 C50.556756,25.9040606 49.4682694,25.9099508 48.7923473,25.2401491 C48.2935567,24.7587156 48.139172,24.0198565 48.4032093,23.3778001 C48.6672465,22.7357436 49.2958805,22.3213754 49.9877281,22.3333543 L50.0008441,22.3333543 C50.6894775,22.320491 51.3168682,22.728796 51.5862411,23.3651286 C51.8556139,24.0014611 51.7129673,24.7382545 51.2257774,25.2269826 L51.2254453,25.2269826 Z" id="形状"></path>
                        <path d="M46.859411,38.5916201 C46.8626767,39.1932386 47.106818,39.7677282 47.5358927,40.183451 C47.9621033,40.6005414 48.5347543,40.8282517 49.127085,40.8161765 L49.1443437,40.8161765 L52.8962651,40.8161765 C53.4961242,40.8142792 54.0705937,40.5705748 54.4929438,40.138825 C54.9152939,39.7070753 55.1508204,39.1227568 55.1475654,38.5147721 L55.1214561,34.9193603 C56.6892622,34.5492024 57.8069218,33.1444879 57.8316606,31.5130784 L59.2542488,19.9508873 C59.2598496,19.9056623 59.2625105,19.8601131 59.2622144,19.8145343 C59.2606596,18.30612 58.7202563,16.849298 57.7409419,15.7134804 C57.5700509,15.5184347 57.3860604,15.3355968 57.1902864,15.1662745 L59.9754261,15.1444461 C60.2578237,15.1422287 60.5270022,15.0228763 60.7202812,14.814181 C60.9135601,14.6054858 61.014071,14.3256615 60.9984092,14.0398676 C60.9362501,13.2711734 60.7804757,12.5132298 60.5346372,11.7833162 C59.9833916,10.1470809 58.29322,9.12009804 56.220702,9.12009804 L56.1745313,9.12009804 C54.9835341,9.12009804 52.8489143,9.11307108 51.8042472,9.11695833 L49.8156625,5.47699265 C48.3833387,2.91947794 46.3003474,0 42.8568698,0 L42.8114367,0 L18.2120492,0.160723039 C15.3875243,0.181803922 12.9003552,2.15892157 11.2053157,5.75029657 L9.18649141,9.43406863 C8.1430044,9.43975 5.9822753,9.44901961 4.77593706,9.45784069 C2.6824726,9.47368873 0.986548076,10.552402 0.455363922,12.2088211 C0.219060394,12.9503339 0.0744769111,13.7187076 0.0249292202,14.4963211 C0.0134882295,14.7772821 0.118601856,15.0502701 0.314786722,15.2491029 C0.511116835,15.4473419 0.778827673,15.5556834 1.05587786,15.5490196 L1.06472847,15.5490196 L3.80414,15.5425907 C3.61387692,15.7190663 3.43575972,15.9085397 3.27103822,16.1096814 C2.32694242,17.2715015 1.82110353,18.7356658 1.84387724,20.2406373 C1.84419676,20.2852903 1.84725117,20.3298801 1.85302287,20.3741495 L3.38019575,31.9203431 C3.42756751,33.5783814 4.59893342,34.9833157 6.2039831,35.3071887 L6.2300924,38.895424 C6.2332743,39.4986853 6.47724646,40.0749515 6.90642657,40.4929363 C7.12474164,40.709875 7.37757409,40.9656863 7.65268057,40.9656863 L1.10013091,40.9656863 C0.507712384,40.9818512 0.0278993263,41.4584526 0,42.0584534 L0,59.9996299 C0,60.5776348 0.529856563,61 1.10013091,61 L8.44348264,61 C9.01277812,61 9.47467132,60.5329841 9.47605389,59.955973 L9.50555593,47.5441176 L18.8012049,47.5441176 C19.0633173,47.5519503 19.3167148,47.4483085 19.5000517,47.2582831 C19.6833886,47.0682576 19.7799518,46.8091715 19.766364,46.5437475 L19.766364,42.0584534 C19.766364,41.480299 19.3717742,40.9656863 18.8013524,40.9656863 L13.0174783,40.9656863 C13.33315,40.9656863 13.6230075,40.6899902 13.8655143,40.4406078 C14.2888311,40.0117176 14.5240306,39.4281955 14.5180993,38.8215662 L14.4925801,35.3118235 L46.8340393,35.0726078 L46.859411,38.5916201 Z M52.880924,38.7529412 L49.1291501,38.781049 C49.0750565,38.7824372 49.0228737,38.7607387 48.9853277,38.7212451 C48.9465578,38.6832815 48.9246296,38.6310086 48.9245535,38.5763701 L48.8996243,35.060049 L53.0573462,35.028951 L53.082881,38.544674 C53.0835344,38.5994939 53.0625871,38.6523168 53.0246729,38.6914187 C52.9867587,38.7305205 52.9350142,38.7526665 52.880924,38.7529412 Z M56.1897248,11.1653922 C57.3596281,11.1495441 58.3213944,11.666848 58.5804223,12.4362255 C58.6541774,12.6531642 58.7120014,12.8648701 58.7587621,13.0614755 L53.9857753,13.0988529 L52.9414032,11.1813897 C54.0139497,11.1770539 55.3406563,11.1710735 56.1897248,11.1647941 L56.1897248,11.1653922 Z M13.0269189,6.72599755 C13.0373921,6.7070098 13.0471278,6.68757353 13.056421,6.66813725 C13.8304069,5.01949265 15.5314942,2.27389461 18.2272428,2.25386029 L42.8266302,2.09313725 L42.8561323,2.09313725 C44.7367395,2.09313725 46.2826462,3.39671324 48.0130881,6.48723039 L52.069618,13.9231005 L48.0011398,13.9718407 C47.5462987,10.921742 44.9582046,8.66793618 41.9147223,8.67156863 L41.8688466,8.67156863 C38.805786,8.67928123 36.2195135,10.979756 35.8142913,14.0570613 L8.91861292,14.2458922 L13.0269189,6.72599755 Z M45.9051677,13.9817083 L37.910116,14.0539216 C38.3007602,12.1430466 39.9586855,10.7707824 41.8840402,10.7646755 L41.9145748,10.7646755 C43.823991,10.7573326 45.4825682,12.0943887 45.9051677,13.9817083 L45.9051677,13.9817083 Z M2.24967774,13.4805515 C2.29393079,13.2837966 2.34880458,13.0719412 2.41857689,12.8545539 C2.66624648,12.0821863 3.61945726,11.5574069 4.79039306,11.5485858 C5.64064173,11.5423064 6.9646931,11.5343824 8.03753463,11.528402 L6.99198248,13.4389877 L2.24967774,13.4805515 Z M17.7012215,43.0588235 L17.7012215,45.4509804 L8.47563986,45.4509804 C7.90634438,45.4509787 7.44445118,45.9179963 7.44306861,46.4950074 L7.41341906,58.9068627 L2.0651425,58.9068627 L2.0651425,43.0588235 L17.7012215,43.0588235 Z M8.26971565,35.364152 L12.4274375,35.3330539 L12.4529604,38.8486275 C12.4536119,38.9621228 12.3635798,39.0547793 12.2516054,39.055848 L8.49968402,39.0838064 C8.4463259,39.0814968 8.39544621,39.0603401 8.35586159,39.0240025 C8.31708889,38.9860533 8.29520453,38.9337579 8.29523491,38.8791275 L8.26971565,35.364152 Z M6.89315066,33.3406863 L6.88252993,33.3406863 C6.08694741,33.3256818 5.44850519,32.6700243 5.44415817,31.8635294 C5.4437659,31.8146558 5.44071271,31.7658414 5.43501254,31.7173088 L3.90901951,20.1745539 C3.90901951,19.1895565 4.24195832,18.2342921 4.85308488,17.4684265 C5.37932784,16.7952193 6.15838323,16.3745169 7.00319325,16.3073333 C7.0549614,16.3075358 7.10667605,16.3039382 7.15793143,16.2965686 L7.16560196,16.2965686 L53.7839813,15.9724314 C53.7909143,15.9724314 53.7975523,15.997549 53.8044853,15.997549 L53.8353149,15.997549 C54.7432673,16.0012569 55.604724,16.4050816 56.1954777,17.1039216 C56.8255524,17.8465085 57.1797867,18.7889193 57.1969243,19.7681863 L55.7753688,31.3218554 C55.7697722,31.367281 55.7671113,31.4130289 55.7674032,31.4588064 C55.7745929,32.2695395 55.1391602,32.9364071 54.3395047,32.9573431 L6.89315066,33.3406863 Z" id="形状"></path>
                        <path d="M37.9309779,29 L37.9229636,29 L23.0512802,29.0894737 C22.4640323,29.1049977 21.9977531,29.5302777 22,30.0483089 C22.0022632,30.5663401 22.4722312,30.9884514 23.059597,31 L23.0674602,31 L37.9392948,30.8778671 C38.5273981,30.8758421 39.0022883,30.4538272 39,29.9352706 C38.9976951,29.4167139 38.5190813,28.9979823 37.9309779,29 L37.9309779,29 Z" id="路径"></path>
                        <path d="M24.0082492,25 L24.0157564,25 C24.5688389,24.9859711 25.0073139,24.5562516 24.9999075,24.0355007 L24.9831934,21.9143755 C24.9807275,21.6693114 24.874825,21.4352304 24.6888312,21.2637336 C24.5028374,21.0922368 24.2520226,20.9974043 23.9916767,21.0001411 L23.9841695,21.0001411 C23.7237219,20.9958272 23.472437,21.0905869 23.2871941,21.2629708 C23.1019512,21.4353547 22.9984139,21.6707865 23,21.9159755 L23.0167325,24.0613664 C23.0197137,24.5765183 23.4609897,24.9942586 24.0082492,25 Z" id="路径"></path>
                        <path d="M19.9917691,21 L19.9842613,21 C19.7221276,20.9989661 19.4704737,21.0968024 19.2855285,21.271658 C19.1005834,21.4465137 18.9977615,21.6838153 19.000037,21.9305406 L19.0166107,24.0686689 C19.020253,24.5823815 19.4624156,24.9976737 20.0082011,25 L20.0157089,25 C20.5659399,24.9929025 21.0062337,24.56792 20.9999332,24.0500023 L20.9833595,21.9216073 C20.9789172,21.4097802 20.5355575,20.9977156 19.9917691,21 L19.9917691,21 Z" id="路径"></path>
                        <path d="M41.9917598,21.0000451 L41.984252,21.0000451 C41.722803,20.9976054 41.4712771,21.0941476 41.286196,21.2679772 C41.1011148,21.4418068 40.9980023,21.6783438 41.0000293,21.9244347 L41.016603,24.0656105 C41.0199976,24.579915 41.4617843,24.9962175 42.0081918,25 L42.0156995,25 C42.5671692,24.9900006 43.0067197,24.5629996 42.9999222,24.0438775 L42.9833485,21.9185681 C42.9785956,21.407359 42.5348895,20.9963477 41.9917598,21.0000451 L41.9917598,21.0000451 Z" id="路径"></path>
                        <path d="M29.0083268,24.9998019 L29.015834,24.9998019 C29.2759155,25.0049153 29.5271535,24.9108657 29.7124808,24.739016 C29.8978081,24.5671662 30.0014929,24.3321041 30,24.0872225 L29.9832696,21.9404475 C29.9804556,21.4249014 29.5393739,21.0065376 28.9917543,21 L28.9843888,21 C28.4306002,21.015674 27.9925011,21.4465437 28.0000973,21.9680489 L28.0168114,24.0881559 C28.0196114,24.3329002 28.1257118,24.5665448 28.3117146,24.7375646 C28.4977174,24.9085843 28.7483449,25.0029322 29.0083268,24.9998019 L29.0083268,24.9998019 Z" id="路径"></path>
                        <path d="M33.008307,25 L33.0156726,25 C33.2773909,25.0017334 33.5289231,24.9046082 33.7139373,24.7303526 C33.8989515,24.556097 34.0019879,24.3192718 33.9999709,24.0729153 L33.9832567,21.9333279 C33.9800083,21.419137 33.5379859,21.0030577 32.9917344,21 L32.9843688,21 C32.4334654,21.0087685 31.9936004,21.4348529 32.0000705,21.9534611 L32.0167847,24.0801153 C32.0213047,24.5916326 32.4648875,25.003156 33.008307,25 L33.008307,25 Z" id="路径"></path>
                        <path d="M38.0082849,25 L38.0156505,25 C38.278988,24.998488 38.530843,24.8983157 38.7155464,24.7216249 C38.9002498,24.5449341 39.0025914,24.306275 38.9999501,24.0584001 L38.9832359,21.9257336 C38.9792645,21.4130552 38.5363689,20.9995469 37.9917123,21 L37.9843467,21 C37.721292,21.0008762 37.4694728,21.1004787 37.2847044,21.2767312 C37.0999359,21.4529836 36.9974805,21.6913272 37.0000471,21.9389336 L37.0167613,24.0722668 C37.0200331,24.5855442 37.4629965,25 38.0082849,25 Z" id="路径"></path>
                    </g>
                </g>
            </g>
        </g>
    </g>
</svg>