<?xml version="1.0" encoding="UTF-8"?>
<svg width="65px" height="63px" viewBox="0 0 65 63" version="1.1" xmlns="http://www.w3.org/2000/svg" xmlns:xlink="http://www.w3.org/1999/xlink">
    <!-- Generator: Sketch 56.2 (81672) - https://sketch.com -->
    <title>maintenance</title>
    <desc>Created with Sketch.</desc>
    <g id="页面-1" stroke="none" stroke-width="1" fill="none" fill-rule="evenodd" opacity="0.802199591">
        <g id="After-sale-派工" transform="translate(-250.000000, -188.000000)" fill="#FFFFFF" fill-rule="nonzero">
            <g id="编组-3" transform="translate(95.000000, 168.000000)">
                <g id="maintenance" transform="translate(155.000000, 20.000000)">
                    <path d="M3.01196701,62.1036509 C3.07921713,62.6263597 3.53014672,63.0132075 4.05561408,62.998985 L17.5743585,62.998985 C17.9033192,63.013759 18.2187455,62.8665322 18.4192425,62.6046312 C18.6197396,62.3427302 18.6800378,61.9991638 18.580754,61.6843725 L16.8512559,56.0046865 L22.2392266,52.5923267 C22.9313347,52.2110704 23.7419722,52.1074022 24.5073715,52.3022655 C24.5291517,52.3076872 24.5510821,52.3135607 24.5731628,52.3173258 L35.8251142,54.3956454 C38.9276874,54.9522895 42.1264995,54.4995664 44.9541721,53.1036234 C44.9987417,53.0816704 45.0416637,53.0565039 45.0826002,53.028322 L64.5435839,39.6314437 C65.0021949,39.3157358 65.1361732,38.6964963 64.8492577,38.2186382 C63.3199397,35.6647252 60.056715,34.7699915 57.4439899,36.1882103 L57.2628387,36.2862527 C55.8462245,34.6826334 53.4926111,34.0838364 51.6868073,35.0017609 C51.6789964,35.0056765 51.6711856,35.0097428 51.6633748,35.0139597 L51.0060634,35.3690813 C49.0274968,33.7687598 46.2716091,33.5515501 44.0679433,34.8222422 L39.9010156,37.0952914 L34.3433096,37.0952914 C33.1602174,37.0933202 31.9927027,36.8246984 30.9271229,36.309295 L30.155503,35.9344444 C25.6029013,33.7132599 20.1920224,34.242878 16.1538389,37.3049305 C16.1307068,37.3222499 16.1087764,37.3403222 16.086846,37.3595994 L14.2233622,39.0230081 C13.5958073,39.582695 12.8622134,40.0098708 12.0663714,40.279036 L11.0695893,36.9696886 C10.9379919,36.5192247 10.5319143,36.2050637 10.063945,36.1916741 L1.05144864,36.1916741 C0.746401765,36.2035992 0.46053734,36.3440359 0.26420709,36.5784223 C0.064559919,36.8042969 -0.0288094554,37.1052129 0.00780157045,37.4047802 L3.01196701,62.1036509 Z M52.64799,36.8776702 C53.5010228,36.4505605 54.5556351,36.7377601 55.3132856,37.3412258 L48.2048293,41.1862677 L47.9847742,41.3025331 C47.7794365,40.7801189 47.5086939,40.2859959 47.179057,39.8320467 L52.64799,36.8776702 Z M45.0844027,36.6668262 C45.0928143,36.6623081 45.101226,36.6576394 45.1093373,36.6528201 C46.2702085,35.9795209 47.6881022,35.9255611 48.8965384,36.5086932 L45.6069773,38.285807 C45.0445889,37.891223 44.4242239,37.58706 43.7682778,37.3842983 L45.0844027,36.6668262 Z M15.621651,40.5975611 L17.452089,38.96352 C20.8588499,36.4000559 25.4097122,35.9630543 29.2398333,37.8315888 L30.0116034,38.2068911 C31.3627239,38.8605261 32.8431353,39.201208 34.3433096,39.2037315 L41.8278874,39.2037315 C43.8933477,39.2061975 45.6945532,40.6117589 46.2040551,42.6186516 L41.0558168,42.3846147 C39.0707055,42.294622 37.0815449,42.386621 35.113127,42.659465 C34.7363911,42.7057781 34.4137924,42.9520706 34.2690671,43.3038744 C34.1243417,43.6556782 34.1799569,44.0583791 34.4145808,44.3575171 C34.6492047,44.6566551 35.0264143,44.8057918 35.4015269,44.7477244 C37.2429407,44.4926816 39.1037104,44.4064813 40.960735,44.4901935 L47.3445866,44.7799534 C47.3596074,44.7799534 47.3762805,44.7810076 47.3920524,44.7810076 C47.9727565,44.7810076 48.4435103,44.3090172 48.4435103,43.7267875 C48.4435103,43.6326607 48.4403559,43.5394375 48.4366007,43.4462144 L49.1935002,43.0460625 L58.4418235,38.0436376 C59.7367221,37.34054 61.3338529,37.538098 62.4194887,38.5356572 L43.9548365,51.2465394 C41.5489647,52.4173441 38.8349762,52.7937907 36.2024374,52.3218439 L24.9850338,50.2509038 C23.6999131,49.9348382 22.343011,50.1204151 21.1892708,50.7700319 C21.1728981,50.7792187 21.1565254,50.7890079 21.1407535,50.7990983 L16.2139222,53.9218488 L12.6795216,42.2986205 C13.7659554,41.9395583 14.7673261,41.3607468 15.621651,40.5980129 L15.621651,40.5975611 Z M9.28526527,38.3001143 L16.15459,60.8905448 L4.98660495,60.8905448 L2.23884503,38.3001143 L9.28526527,38.3001143 Z" id="形状"></path>
                    <path d="M10,61 C11.6568542,61 13,59.6568542 13,58 C13,56.3431458 11.6568542,55 10,55 C8.34314575,55 7,56.3431458 7,58 C7.00191422,59.6560607 8.34393929,60.9980858 10,61 Z M10,57.2105263 C10.4360143,57.2105263 10.7894737,57.5639857 10.7894737,58 C10.7894737,58.4360143 10.4360143,58.7894737 10,58.7894737 C9.56398572,58.7894737 9.21052632,58.4360143 9.21052632,58 C9.21104833,57.5642021 9.56420213,57.2110483 10,57.2105263 Z" id="形状"></path>
                    <path d="M16.9762331,16 C15.3185093,16.0334589 13.994063,17.3732321 14.00002,19.0106343 C14.0060174,20.6480365 15.3402106,21.9783449 16.9981356,22 L17.0206382,22 C18.6840958,21.9682077 20.0122388,20.6210375 19.9999149,18.9780416 C19.987591,17.3350457 18.639385,16.0074533 16.975633,16 L16.9762331,16 Z M17.8604342,18.962963 C17.8704287,19.2068296 17.7850795,19.4451531 17.6220569,19.6285926 C17.4659173,19.8063198 17.243274,19.9136606 17.0053364,19.925932 L16.9985857,19.925932 C16.5014726,19.927726 16.0970052,19.5312161 16.0951762,19.0402963 C16.0933597,18.5493765 16.4948718,18.1499482 16.9919849,18.1481481 C16.9943852,18 16.9964854,18 16.9988857,18 C17.2350167,18.013689 17.4559094,18.1196674 17.6127559,18.2945185 C17.7793773,18.4698809 17.8684918,18.7035106 17.8604342,18.9438519 L17.8604342,18.962963 Z" id="形状"></path>
                    <path d="M47.9688947,16 L47.9467159,16 C46.3135127,16.0058818 44.9942401,17.3537871 45.0000189,19.0106307 C45.0058358,20.6674743 46.3345087,22.0058433 47.9677118,21.9999808 L47.9900385,21.9999808 C49.6374281,21.9945658 50.9766184,20.6508066 51,18.9797309 C50.8521412,17.3300415 49.5928278,16 47.9688947,16 Z M47.9749569,19.8999809 L47.9688947,19.8999809 C47.4789338,19.9017561 47.0803187,19.5002588 47.0785571,19.0032057 C47.0768073,18.5061526 47.4725758,18.1017676 47.9625368,18.0999803 L47.9691904,18.0999803 C48.4591514,18.098164 48.8577996,18.4996277 48.8596022,18.9966808 C48.8613926,19.4937339 48.4656571,19.8981524 47.9756962,19.8999809 L47.9749569,19.8999809 Z" id="形状"></path>
                    <path d="M55.7156742,11.3928424 C55.9119506,11.18691 56.0141321,10.9106788 55.9984229,10.6284777 C55.9530428,10.0190362 55.8297254,9.41769672 55.6314034,8.83876017 C55.1744252,7.51950037 53.7892707,6.64279858 52.0963707,6.64279858 L52.0592497,6.64279858 C51.2018729,6.64279858 49.7192757,6.68383631 48.8836027,6.6870839 L47.4409705,4.15543955 C46.3146158,2.19758539 44.6691648,0 41.9105311,0 L41.8734101,0 L23.1230831,0.105546688 C20.8667812,0.122079876 18.8894859,1.63088086 17.5526787,4.38350897 L16.0913362,6.97420042 C15.2531187,6.97877657 13.7456743,6.98305748 12.8809632,6.98896219 C11.1709994,7.00136208 9.78255201,7.87038775 9.34173941,9.20544265 C9.15313859,9.77717474 9.03862138,10.3701372 9.00091418,10.9702128 C8.98895133,11.2617075 9.09479152,11.5459672 9.2951884,11.7605582 C9.48945242,11.9696953 9.76041647,12.0935831 10.047788,12.1046552 L10.0569186,12.1046552 L11.5133215,12.0624365 C10.7638182,12.9626788 10.3646782,14.0971572 10.3877151,15.2617559 C10.388096,15.30266 10.3912463,15.3434934 10.3971451,15.3839834 L11.5595731,23.9288366 C11.6035304,25.1933239 12.4757688,26.282865 13.7127444,26.618432 L13.7311552,29.0792198 C13.7360882,29.5942985 13.9486375,30.0862725 14.3219003,30.4465785 C14.6951631,30.8068845 15.1984583,31.0059066 15.7207244,30.9998664 L15.7356925,30.9998664 L18.5955111,30.9923458 C19.1223364,30.9915369 19.627069,30.7834996 19.9978027,30.4143586 C20.3685364,30.0452176 20.5746378,29.5454747 20.5704114,29.0259298 L20.5528986,26.6773315 L44.6832349,26.5028473 L44.7007477,28.8535123 C44.7029273,29.3815158 44.9159361,29.8874167 45.2936369,30.261638 C45.6621137,30.6316562 46.1634626,30.8437693 46.689269,30.8521089 L46.7042372,30.8521089 L49.5637564,30.8060522 C50.6648655,30.7914701 51.5474728,29.9028989 51.5395548,28.8169031 L51.521144,26.337663 C52.7272211,25.9625509 53.5571796,24.8716338 53.5851049,23.6247441 L54.6679023,15.061291 C54.6735404,15.0161906 54.6761904,14.9707756 54.6758354,14.9253351 C54.6742378,13.7516269 54.2445287,12.6176595 53.4652099,11.7305918 L54.9608294,11.7190776 C55.2470671,11.7165872 55.5198093,11.5987112 55.7156742,11.3928424 Z M19.4004992,5.3428767 C19.4112763,5.32412925 19.4211553,5.30508656 19.4304356,5.28574864 C19.9939872,4.11750179 21.2254185,2.18577597 23.1383506,2.17219513 L41.888977,2.06664845 L41.909184,2.06664845 C43.2368607,2.06664845 44.3474989,2.98084515 45.6126086,5.17916862 L48.4927838,10.3090329 L46.0517747,10.3190709 C45.5958317,8.01360351 43.5402298,6.35486745 41.1585326,6.37054527 C38.7768355,6.3862231 36.7438683,8.07187269 36.3191713,10.383137 L16.4863462,10.5267691 L19.4004992,5.3428767 Z M43.8884251,10.3271899 L38.4822215,10.3664562 C38.8656562,9.22039227 39.9473613,8.44302495 41.1710399,8.43413713 C42.3947185,8.42524931 43.487916,9.18681988 43.8884251,10.3271899 L43.8884251,10.3271899 Z M11.2953849,9.96788831 C11.3076588,9.92665375 11.320731,9.88507475 11.3346015,9.84315131 C11.4860794,9.3830268 12.1279145,9.0578249 12.8963804,9.05221543 C13.4305944,9.04837737 14.2101367,9.0436536 14.9254655,9.03966792 L14.4183439,9.94131711 L11.2953849,9.96788831 Z M15.8255015,28.9593542 L15.8087372,26.7134978 L18.4566064,26.6943075 L18.4733708,28.9400163 L15.8255015,28.9593542 Z M46.794645,28.7342371 L46.7780303,26.4883807 L49.4257499,26.4691904 L49.4425142,28.7150468 L46.794645,28.7342371 Z M51.4973446,23.4276744 C51.4916567,23.4726727 51.4889567,23.5179895 51.4892618,23.5633351 C51.4905977,24.0173122 51.1200331,24.3871853 50.6597258,24.391323 L14.4952803,24.6521636 L14.4891433,24.6521636 C14.0317786,24.6508392 13.6599206,24.2881813 13.6534704,23.837166 C13.6530958,23.7939086 13.6499462,23.750718 13.6440405,23.7078529 L12.4832589,15.1703805 C12.4982271,13.6285132 13.5368684,12.650398 14.5892804,12.5695035 C14.6255034,12.5733415 14.6620257,12.5475084 14.6989971,12.5475084 L14.7067805,12.5475084 L50.2388208,12.3442388 C50.2440597,12.3442388 50.2492986,12.3998907 50.2546871,12.3998907 L50.2626202,12.3998907 C50.8813294,12.3921447 51.4726111,12.6512769 51.8814278,13.1093416 C52.3167002,13.6049812 52.5632872,14.2346886 52.5787948,14.8902021 L51.4973446,23.4276744 Z M50.5456683,9.6857908 L50.0376486,8.77808927 C50.7537259,8.77513692 51.5368605,8.77144648 52.0743675,8.76760841 C52.8404384,8.7591942 53.4894583,9.07760568 53.6481209,9.53522069 C53.6630891,9.57758699 53.6765604,9.61980566 53.6897324,9.66143387 L50.5456683,9.6857908 Z" id="形状"></path>
                    <path d="M38.9573324,22 L28.025593,22.0735831 C27.4533208,22.0876833 26.9979968,22.5167803 27,23.0400948 C27.0020164,23.5634093 27.4606251,23.9895732 28.0329915,24 L28.0408339,24 L38.9725733,23.91005 C39.5456319,23.9013293 40.0040319,23.4722323 40,22.9483262 C39.9959146,22.4244202 39.5309125,22.0013008 38.9577763,22 L38.9573324,22 Z" id="路径"></path>
                    <path d="M27.006172,21 L27.0134113,21 C27.2773346,20.9982959 27.5297627,20.8827127 27.7148903,20.6788029 C27.9000179,20.4748931 28.002597,20.1994517 27.99995,19.9133717 L27.9874586,18.0669346 C27.9832439,17.4756216 27.5393363,16.9989686 26.9938225,17 L26.9864412,17 C26.7229928,17.0006449 26.4706765,17.1152382 26.2854857,17.3183514 C26.1002949,17.5214646 25.9975474,17.7962975 26.0000445,18.08186 L26.0125359,19.9312206 C26.0167463,20.5228327 26.4603815,21 27.006172,21 L27.006172,21 Z" id="路径"></path>
                    <path d="M23.9937686,17 L23.9862459,17 C23.4352366,17.0074331 22.993912,17.4972117 23.0000635,18.0944577 L23.012696,19.9372205 C23.0171474,20.527691 23.4614812,21.002973 24.0062591,21 L24.0137818,21 C24.2764514,21.0010658 24.5285824,20.8880957 24.7138787,20.6862999 C24.8991749,20.4845041 25.002205,20.210688 24.9999642,19.9259898 L24.9873318,18.0729193 C24.9835981,17.4804872 24.5403551,17.0018423 23.9937686,17 L23.9937686,17 Z" id="路径"></path>
                    <path d="M40.9937832,17 L40.9862605,17 C40.4330378,17.0139513 39.9932394,17.5079808 40.0000787,18.107787 L40.0127111,19.9439439 C40.0151456,20.2268404 40.1212272,20.4970839 40.307588,20.695144 C40.4939488,20.8932042 40.7453003,21.0028327 41.0062737,20.9998803 L41.0136545,20.9998803 C41.2750014,21.0041494 41.5269148,20.8941076 41.7125089,20.6946041 C41.898103,20.4951005 42.001726,20.2229599 41.9999782,19.9396358 L41.9873458,18.0794769 C41.9837997,17.4858559 41.5413979,17.0051993 40.9937832,17 L40.9937832,17 Z" id="路径"></path>
                    <path d="M31.0061519,21 L31.0135332,21 C31.5654523,20.9904685 32.0064089,20.4991427 31.9999295,19.9009308 L31.9874381,18.0604822 C31.9828308,17.4704535 31.5382095,16.995933 30.9938025,17 L30.9865631,17 C30.7243617,16.9979616 30.4723441,17.1099266 30.2869214,17.3108613 C30.1014988,17.5117959 29.9981559,17.7849198 30.0000249,18.0690975 L30.0125163,19.9244691 C30.0160851,20.5173984 30.4590709,20.996895 31.0061519,21 L31.0061519,21 Z" id="路径"></path>
                    <path d="M34.0061392,21 L34.0135205,21 C34.5675905,20.9843922 35.0071676,20.4889965 34.9999114,19.8883545 L34.9874201,18.0542778 C34.9849876,17.7715696 34.8788485,17.5015319 34.6924289,17.3037655 C34.5060093,17.1059992 34.2546358,16.9967635 33.9937898,17.0001683 L33.9864086,17.0001683 C33.7254194,16.9951077 33.473583,17.1043707 33.287914,17.3032207 C33.1022451,17.5020707 32.9984464,17.7736901 33,18.0565854 L33.0125089,19.9180455 C33.0154281,20.5123018 33.4578414,20.9940414 34.0061392,21 L34.0061392,21 Z" id="路径"></path>
                    <path d="M38.0062918,20.9996713 L38.0138144,20.9996713 C38.2738843,21.0067464 38.5255115,20.8993659 38.7113158,20.7020162 C38.8971201,20.5046664 39.0012602,20.2341733 39,19.9522189 L38.9873561,18.0860646 C38.9843183,17.4912036 38.5426113,17.0083693 37.9938014,17 L37.9862788,17 C37.4307443,17.0199729 36.9922198,17.5183072 37.0001047,18.1206771 L37.012737,19.950219 C37.0153876,20.2324247 37.1217272,20.5018427 37.3082093,20.6988164 C37.4946915,20.89579 37.7459293,21.0040668 38.0062918,20.9996713 Z" id="路径"></path>
                </g>
            </g>
        </g>
    </g>
</svg>